<svg width="83" height="83" viewBox="0 0 83 83" fill="none" xmlns="http://www.w3.org/2000/svg">
<path d="M32.9075 65.4978C24.5351 65.4978 16.1626 62.3107 9.78899 55.9371C3.61374 49.7619 0.212891 41.5514 0.212891 32.8186C0.212891 24.0858 3.61374 15.8753 9.78899 9.70004C22.5362 -3.04715 43.2789 -3.04715 56.0261 9.70004C68.7732 22.4478 68.7732 43.1893 56.0261 55.9371C49.6525 62.3107 41.28 65.4978 32.9075 65.4978ZM32.9075 1.40026C24.8584 1.40026 16.8088 4.46417 10.6809 10.592C-1.5747 22.8476 -1.5747 42.7895 10.6809 55.0452C22.9366 67.3008 42.8785 67.3008 55.1341 55.0452C67.3891 42.7895 67.3891 22.8476 55.1341 10.592C49.0063 4.46417 40.9566 1.40026 32.9075 1.40026Z" fill="#A2CAFE"/>
<path d="M32.9062 60.4034C25.5384 60.4034 18.6116 57.5342 13.4029 52.3248C8.19348 47.116 5.32422 40.1893 5.32422 32.8209C5.32422 25.4524 8.19348 18.5257 13.4029 13.3175C18.6116 8.10754 25.5378 5.23828 32.9062 5.23828C40.274 5.23828 47.2001 8.10754 52.4095 13.3175C57.6109 18.5189 60.4758 25.445 60.4758 32.8209C60.4758 40.1967 57.6109 47.1234 52.4095 52.3248C47.2001 57.5342 40.2734 60.4034 32.9062 60.4034ZM32.9062 6.49982C25.8747 6.49982 19.2652 9.23787 14.2948 14.2095C9.32381 19.1799 6.58576 25.7894 6.58576 32.8209C6.58576 39.8523 9.32381 46.4618 14.2948 51.4328C19.2658 56.4038 25.8753 59.1419 32.9062 59.1419C39.9364 59.1419 46.5459 56.4038 51.5175 51.4328C56.4805 46.4692 59.2143 39.8597 59.2143 32.8209C59.2143 25.782 56.4805 19.1725 51.5175 14.2095C46.5465 9.23787 39.937 6.49982 32.9062 6.49982Z" fill="#A2CAFE"/>
<path d="M57.2725 63.0286C57.1049 63.0286 56.9448 62.9621 56.8265 62.8438L52.3723 58.3896C52.1259 58.1432 52.1259 57.7441 52.3723 57.4977C52.6187 57.2513 53.0178 57.2513 53.2642 57.4977L57.2725 61.5059L61.5899 57.1879L57.5823 53.1803C57.3359 52.9339 57.3359 52.5347 57.5823 52.2883C57.8287 52.0419 58.2278 52.0419 58.4742 52.2883L62.9278 56.7419C63.1742 56.9883 63.1742 57.3874 62.9278 57.6338L57.7184 62.8438C57.6002 62.9621 57.44 63.0286 57.2725 63.0286Z" fill="#A2CAFE"/>
<path d="M73.4128 82.1214C71.1589 82.1214 68.9044 81.2633 67.1883 79.5472L53.6594 66.0177C53.413 65.7713 53.413 65.3721 53.6594 65.1258L65.2165 53.568C65.4531 53.3315 65.8719 53.3315 66.1085 53.568L79.638 67.0975C83.0702 70.5298 83.0702 76.1149 79.638 79.5472C77.9218 81.2633 75.6673 82.1214 73.4128 82.1214ZM54.9973 65.5717L68.0802 78.6552C71.0216 81.5947 75.8059 81.5947 78.746 78.6552C81.6867 75.7145 81.6867 70.9302 78.746 67.9895L65.6625 54.9059L54.9973 65.5717Z" fill="#A2CAFE"/>
<path d="M58.0202 70.1177C57.7892 70.1177 57.5662 69.9902 57.456 69.7697C57.2995 69.458 57.4252 69.0792 57.7368 68.9233C62.7208 66.4243 66.5146 62.6304 69.0137 57.6465C69.1689 57.3361 69.549 57.2098 69.86 57.3656C70.1717 57.5215 70.2974 57.9003 70.1409 58.212C67.5181 63.4442 63.5345 67.4277 58.3023 70.0506C58.2118 70.0962 58.1151 70.1177 58.0202 70.1177Z" fill="#A2CAFE"/>
<path d="M74.6827 78.3756C73.7137 78.3756 72.7448 78.0066 72.0069 77.2693C70.5316 75.7934 70.5316 73.3929 72.0069 71.917C73.4821 70.4423 75.8826 70.4411 77.3591 71.917C78.8344 73.3929 78.8344 75.7934 77.3591 77.2693C76.6212 78.0066 75.6523 78.3756 74.6827 78.3756ZM74.6827 72.0716C74.0365 72.0716 73.3904 72.3174 72.8988 72.809C71.9157 73.7927 71.9157 75.3936 72.8988 76.3774C73.8838 77.3611 75.4835 77.3599 76.4672 76.3774C77.4503 75.3936 77.4503 73.7927 76.4672 72.809C75.9756 72.3174 75.3295 72.0716 74.6827 72.0716Z" fill="#A2CAFE"/>
<path d="M48.6809 47.7697H17.1209C15.2267 47.7697 13.6855 46.2285 13.6855 44.3343V23.1056C13.6855 21.2115 15.2267 19.6709 17.1209 19.6709H48.6809C50.575 19.6709 52.1162 21.2115 52.1162 23.1056V44.3343C52.1162 46.2285 50.575 47.7697 48.6809 47.7697ZM17.1209 20.9324C15.9222 20.9324 14.9471 21.9075 14.9471 23.1056V44.3343C14.9471 45.533 15.9222 46.5081 17.1209 46.5081H48.6809C49.8796 46.5081 50.8547 45.533 50.8547 44.3343V23.1056C50.8547 21.9075 49.8796 20.9324 48.6809 20.9324H17.1209Z" fill="#A2CAFE"/>
<path d="M32.9003 33.4046C29.7816 33.4046 26.6622 33.1532 23.565 32.6512C23.2213 32.5952 22.9879 32.2711 23.0433 31.9274C23.0994 31.5837 23.416 31.3459 23.7671 31.4057C29.8271 32.3888 35.9734 32.3888 42.0335 31.4057C42.3815 31.3459 42.7012 31.5837 42.7573 31.9274C42.8127 32.2711 42.5793 32.5952 42.2355 32.6512C39.1384 33.1532 36.019 33.4046 32.9003 33.4046Z" fill="#A2CAFE"/>
<path d="M46.1009 31.8791C45.8139 31.8791 45.5545 31.6826 45.4874 31.3912C45.4086 31.0518 45.6198 30.7124 45.9586 30.6342C47.5947 30.2541 49.2388 29.8032 50.8532 29.2914V23.1056C50.8532 21.9075 49.8781 20.9324 48.6801 20.9324H17.117C15.9183 20.9324 14.9432 21.9075 14.9432 23.1056V29.2914C16.5577 29.8032 18.2024 30.2541 19.8378 30.6342C20.1772 30.7124 20.3885 31.0518 20.3103 31.3906C20.2314 31.73 19.8883 31.9438 19.5532 31.8631C17.7348 31.4411 15.906 30.9323 14.1178 30.3515C13.8578 30.2671 13.6816 30.025 13.6816 29.7515V23.1056C13.6816 21.2115 15.2228 19.6709 17.117 19.6709H48.6801C50.5742 19.6709 52.1148 21.2115 52.1148 23.1056V29.7515C52.1148 30.025 51.9386 30.2671 51.6787 30.3515C49.8911 30.9323 48.0622 31.4405 46.2444 31.8625C46.1964 31.8742 46.1484 31.8791 46.1009 31.8791Z" fill="#A2CAFE"/>
<path d="M21.78 35.4852H21.5909C20.2013 35.4852 19.0703 34.3542 19.0703 32.9646V30.6017C19.0703 29.212 20.2013 28.0811 21.5909 28.0811H21.78C23.1697 28.0811 24.3006 29.212 24.3006 30.6017V32.9646C24.3006 34.3542 23.1697 35.4852 21.78 35.4852ZM21.5909 29.3426C20.8967 29.3426 20.3318 29.9074 20.3318 30.6017V32.9646C20.3318 33.6588 20.8967 34.2237 21.5909 34.2237H21.78C22.4742 34.2237 23.0391 33.6588 23.0391 32.9646V30.6017C23.0391 29.9074 22.4742 29.3426 21.78 29.3426H21.5909Z" fill="#A2CAFE"/>
<path d="M44.215 35.4852H44.0265C42.6368 35.4852 41.5059 34.3542 41.5059 32.9646V30.6017C41.5059 29.212 42.6368 28.0811 44.0265 28.0811H44.215C45.6052 28.0811 46.7362 29.212 46.7362 30.6017V32.9646C46.7362 34.3542 45.6052 35.4852 44.215 35.4852ZM44.0265 29.3426C43.3323 29.3426 42.7674 29.9074 42.7674 30.6017V32.9646C42.7674 33.6588 43.3323 34.2237 44.0265 34.2237H44.215C44.9098 34.2237 45.4747 33.6588 45.4747 32.9646V30.6017C45.4747 29.9074 44.9098 29.3426 44.215 29.3426H44.0265Z" fill="#A2CAFE"/>
<path d="M38.6318 20.9334H27.164C26.8153 20.9334 26.5332 20.6513 26.5332 20.3026V16.9006C26.5332 15.8238 27.4097 14.9473 28.4871 14.9473H37.3092C38.386 14.9473 39.2625 15.8238 39.2625 16.9006V20.3026C39.2625 20.6513 38.9804 20.9334 38.6318 20.9334ZM27.7947 19.6719H38.001V16.9006C38.001 16.5193 37.6905 16.2088 37.3092 16.2088H28.4871C28.1052 16.2088 27.7947 16.5193 27.7947 16.9006V19.6719Z" fill="#A2CAFE"/>
</svg>
